<?xml version="1.0" encoding="UTF-8"?>
<svg version="1.1" xmlns="http://www.w3.org/2000/svg" width="1088" height="960">
<path d="M0 0 C359.04 0 718.08 0 1088 0 C1088 316.8 1088 633.6 1088 960 C728.96 960 369.92 960 0 960 C0 643.2 0 326.4 0 0 Z " fill="#FDFDFD" transform="translate(0,0)"/>
<path d="M0 0 C0.33 0 0.66 0 1 0 C0.9278125 1.0003125 0.855625 2.000625 0.78125 3.03125 C-2.36297266 40.77951119 -2.36297266 40.77951119 6 77 C6.4385252 78.34724687 6.85855444 79.70082866 7.25 81.0625 C14.46176352 102.77137998 29.08007307 119.09086594 49 130 C51.64631907 131.18565914 54.23816531 132.07938844 57 133 C58.54806968 133.67295812 60.08960123 134.36111352 61.625 135.0625 C67.39804079 137.64362063 72.51275436 139.12961837 78.796875 139.72265625 C81 140 81 140 84.1875 140.9375 C98.57719777 144.94774364 113.55795272 144.36685596 128.36132812 144.45629883 C131.39219478 144.4780778 134.42246757 144.51748261 137.453125 144.55859375 C138.36378723 144.55870956 139.27444946 144.55882538 140.21270752 144.5589447 C150.48558772 144.71554565 158.99104269 147.51421862 167 154 C171.95376003 159.33481849 173.41258953 163.40678075 173.25390625 170.58984375 C172.9208376 173.75143386 172.0922689 175.60883554 170 178 C165.53558009 180.72503553 161.08446873 180.64873604 156 180 C152.9375 178.375 152.9375 178.375 150 176 C139.9508459 168.57236436 129.75624003 164.12209199 117 166 C112.77963032 168.12540984 109.22981064 170.75143075 107 175 C106.15840206 179.45968254 106.43372245 182.89103981 108.5 186.9375 C108.995 187.618125 109.49 188.29875 110 189 C110 189.66 110 190.32 110 191 C110.53625 191.268125 111.0725 191.53625 111.625 191.8125 C113.42507716 192.71253858 115.21504333 193.63283507 117 194.5625 C121.45708303 196.69818562 124.93749877 197.12742558 129.875 197.1328125 C131.60169922 197.13474609 131.60169922 197.13474609 133.36328125 197.13671875 C135.16345703 197.13091797 135.16345703 197.13091797 137 197.125 C138.16917969 197.12886719 139.33835937 197.13273438 140.54296875 197.13671875 C160.64968123 197.11440275 180.47773617 193.78686481 197.875 183.125 C202.22819005 180.58700806 206.04734921 180.00372209 211 181 C214.0625 182.4375 214.0625 182.4375 216 185 C217.12713587 189.74142279 216.4431566 193.86952681 214.125 198.125 C202.69162342 214.1634866 173.4613948 222.09341925 155.0078125 225.5625 C122.99774654 229.89100071 88.12558535 225.03738712 60 209 C59.29262695 208.6090918 58.58525391 208.21818359 57.85644531 207.81542969 C48.50245291 202.64341544 40.01432623 197.1308572 32 190 C31.15050781 189.28199219 30.30101562 188.56398438 29.42578125 187.82421875 C23.18210574 182.44108044 18.05687344 176.49326161 13 170 C12.34257812 169.195625 11.68515625 168.39125 11.0078125 167.5625 C3.41719563 157.87486447 -2.13201859 147.27373974 -7.07739258 136.0612793 C-7.69794724 134.67484295 -8.34157996 133.2985308 -9.0065918 131.93286133 C-12.02282449 125.59927574 -13.63424674 119.13471106 -15.1875 112.3125 C-15.57711914 110.66024414 -15.57711914 110.66024414 -15.97460938 108.97460938 C-17.74505912 101.3941566 -19.15141604 94.19160801 -19.23828125 86.3828125 C-19.24798447 85.65682358 -19.25768768 84.93083466 -19.26768494 84.18284607 C-19.29261464 81.8301742 -19.30521924 79.47779085 -19.3125 77.125 C-19.31511841 76.32198456 -19.31773682 75.51896912 -19.32043457 74.69161987 C-19.32970966 48.10160206 -14.42460647 24.1316296 -1 1 C-0.67 0.67 -0.34 0.34 0 0 Z " fill="#9AA4AB" transform="translate(413,380)"/>
<path d="M0 0 C0.73476563 0.73605469 1.46953125 1.47210938 2.2265625 2.23046875 C3.14179688 3.14441406 4.05703125 4.05835938 5 5 C6.06347656 6.07701172 6.06347656 6.07701172 7.1484375 7.17578125 C19.58053521 19.10623291 34.80804007 24.15377842 51 29 C52.07894531 29.32871094 53.15789062 29.65742188 54.26953125 29.99609375 C57.16683827 30.7960655 60.04950662 31.42508769 63 32 C63.64582031 32.13390137 64.29164063 32.26780273 64.95703125 32.40576172 C93.42280048 38.10532677 121.7712169 35.59948148 149.88525391 29.64331055 C173.40658705 24.7852832 202.84787673 25.48090824 223.59765625 38.6484375 C228.11296324 41.81129913 232.29873509 44.87573338 236 49 C236.86625 49.94875 237.7325 50.8975 238.625 51.875 C241.12503689 55.16452222 242.51624179 58.15571737 244 62 C244.77150391 63.46179688 244.77150391 63.46179688 245.55859375 64.953125 C247.80816725 70.20143552 247.47408342 75.6952814 247.4375 81.3125 C247.45748047 82.38951172 247.47746094 83.46652344 247.49804688 84.57617188 C247.49358481 91.9430365 246.09456407 97.36408715 243 104 C242.26872558 106.06175362 241.539266 108.12415285 240.8125 110.1875 C234.41535291 126.81616979 223.06358563 141.10936003 211 154 C209.55841645 151.1168329 210.56332767 149.57708661 211.4375 146.5 C214.33873367 134.37123145 215.0733781 120.26037128 209 109 C203.71777141 101.3067957 197.38945773 96.85426848 189 93 C187.865625 92.443125 186.73125 91.88625 185.5625 91.3125 C174.68013424 87.30320735 164.72654098 86.57863968 153.25610352 86.71875 C150.70248535 86.74981769 148.14949162 86.75973221 145.59570312 86.765625 C136.85657213 86.80735753 128.20292731 87.12558889 119.48706055 87.77294922 C104.04586925 88.7783618 88.25540413 88.76416726 73 86 C71.9378125 85.81695312 70.875625 85.63390625 69.78125 85.4453125 C47.81005292 81.04019625 25.92986075 70.31290135 12.69140625 51.765625 C8.66198113 45.46641363 5.31187241 39.11431268 3 32 C2.55333984 30.72189453 2.55333984 30.72189453 2.09765625 29.41796875 C-0.82877614 19.77557631 -0.26586308 9.964942 0 0 Z " fill="#BE2B03" transform="translate(438,409)"/>
<path d="M0 0 C3.23229787 1.42537857 5.4023259 3.18227947 7.9375 5.625 C13.44036326 10.62760296 19.59484406 14.26988973 26 18 C26.69480469 18.42410156 27.38960938 18.84820312 28.10546875 19.28515625 C31.55593155 21.36175057 35.07240201 22.81668072 38.84350586 24.20385742 C40.86017484 24.94837883 42.8636459 25.72100096 44.8671875 26.5 C46.20280421 27.00085627 47.53874335 27.50085355 48.875 28 C49.49890625 28.2475 50.1228125 28.495 50.765625 28.75 C64.72767855 33.88546797 79.60752867 34.47413361 94.31347656 34.33618164 C96.99835296 34.31251452 99.68223224 34.31566328 102.3671875 34.32226562 C110.63402577 34.30797934 118.74090336 34.03838923 126.9453125 32.99609375 C136.3201004 31.80868146 145.61699517 31.69663429 155.05810547 31.73925781 C157.86578077 31.74996484 160.67281279 31.73929563 163.48046875 31.7265625 C172.69976406 31.71906243 181.82484607 32.00710011 191.00390625 32.90234375 C191.82160492 32.98139954 192.63930359 33.06045532 193.48178101 33.14190674 C199.75336114 33.82151898 205.26492826 35.33401617 211 38 C211.93070313 38.40605469 212.86140625 38.81210937 213.8203125 39.23046875 C216.56749578 40.44686462 219.28438884 41.71497114 222 43 C222.68707031 43.30550781 223.37414062 43.61101562 224.08203125 43.92578125 C235.58682393 49.24469762 246.84353546 58.11705002 252.8125 69.4375 C253.204375 70.613125 253.59625 71.78875 254 73 C254.86369487 75.10883227 255.73967426 77.21265698 256.625 79.3125 C257.05039062 80.33988281 257.47578125 81.36726563 257.9140625 82.42578125 C258.56541395 83.9698122 259.25056151 85.50112302 260 87 C260.07194869 89.88370333 260.09291708 92.74239664 260.0625 95.625 C260.05798828 96.42679687 260.05347656 97.22859375 260.04882812 98.0546875 C260.03703168 100.03649006 260.01909605 102.01825433 260 104 C256.98669455 101.88254211 255.19070163 100.38497254 253.5390625 97.05078125 C248.16499832 86.39813119 230.80460492 78.07716086 219.875 74.25732422 C215.31182174 72.87070545 210.68908328 71.85973638 206 71 C205.16791016 70.82629883 204.33582031 70.65259766 203.47851562 70.47363281 C194.36410217 68.71652424 185.3719754 68.60603473 176.125 68.625 C175.31173248 68.62421448 174.49846497 68.62342896 173.66055298 68.62261963 C159.11557551 68.63941996 145.41477022 70.11384456 131.36328125 74.0078125 C120.08787007 76.81687275 108.50599955 77.3904541 96.9375 77.375 C96.27145752 77.37478851 95.60541504 77.37457703 94.91918945 77.37435913 C77.15142528 77.31855053 60.60745175 74.29162994 44 68 C43.12730469 67.70609375 42.25460937 67.4121875 41.35546875 67.109375 C25.7448965 61.561191 11.57509162 50.0155764 3.18359375 35.7421875 C-0.25260327 27.78109738 -1.44621164 20.64557553 -1.25 12 C-1.24484375 11.06027344 -1.2396875 10.12054688 -1.234375 9.15234375 C-1.15562868 2.31125736 -1.15562868 2.31125736 0 0 Z " fill="#E9142B" transform="translate(435,348)"/>
<path d="M0 0 C22.18707131 -0.59684519 44.02384178 5.25882067 63.71484375 15.16015625 C64.40449219 15.50304687 65.09414063 15.8459375 65.8046875 16.19921875 C69.49932938 18.05007185 73.04509063 20.03330438 76.58984375 22.16015625 C77.74484375 22.61390625 78.89984375 23.06765625 80.08984375 23.53515625 C83.87701512 25.29348582 85.72800147 27.1587119 88.58984375 30.16015625 C89.84600236 31.11722948 91.11829626 32.05333821 92.40234375 32.97265625 C96.91988027 36.27983393 100.71220618 40.13921468 104.58984375 44.16015625 C105.79640625 45.33578125 105.79640625 45.33578125 107.02734375 46.53515625 C107.87296875 47.40140625 108.71859375 48.26765625 109.58984375 49.16015625 C110.21117187 49.78535156 110.8325 50.41054688 111.47265625 51.0546875 C116.68282659 56.5356373 120.95619293 62.37991098 125.15234375 68.66015625 C125.68931885 69.46219482 126.22629395 70.2642334 126.77954102 71.09057617 C130.58984375 76.89678127 130.58984375 76.89678127 130.58984375 79.16015625 C129.59984375 78.83015625 128.60984375 78.50015625 127.58984375 78.16015625 C127.58984375 77.50015625 127.58984375 76.84015625 127.58984375 76.16015625 C126.89375 75.89976562 126.19765625 75.639375 125.48046875 75.37109375 C122.29913925 74.03837463 119.35783278 72.45452699 116.33984375 70.78515625 C96.02634412 59.7962597 75.48858805 57.74147588 52.71484375 57.78515625 C51.47090851 57.78347946 51.47090851 57.78347946 50.20184326 57.7817688 C39.23947015 57.7890346 28.81613228 58.21688585 18.19140625 61.1875 C1.01756774 65.825554 -25.03628259 65.56808473 -41.41015625 58.16015625 C-43.61397322 56.74035205 -45.63838815 55.22933409 -47.6640625 53.56640625 C-49.48873216 52.01161271 -49.48873216 52.01161271 -52.16015625 50.66015625 C-55.22926638 48.61408283 -56.66740522 46.38747298 -58.41015625 43.16015625 C-58.66015625 40.28515625 -58.66015625 40.28515625 -58.41015625 38.16015625 C-54.00661299 35.77179381 -49.83101843 34.35361267 -44.97265625 33.16015625 C-41.11879679 32.21151392 -37.60468952 31.24636986 -33.97265625 29.63671875 C-29.90730975 27.95173961 -26.18392952 27.15663451 -21.84765625 26.53515625 C-20.99083252 26.41035889 -20.13400879 26.28556152 -19.2512207 26.15698242 C-3.44567623 24.14337556 12.67842918 24.38301209 28.58984375 24.16015625 C26.09227113 23.5148631 23.59348571 22.87509658 21.09375 22.23828125 C20.39817993 22.05797363 19.70260986 21.87766602 18.98596191 21.69189453 C-5.21242618 15.55650004 -31.72387618 17.51636114 -56.41015625 19.16015625 C-56.41015625 19.82015625 -56.41015625 20.48015625 -56.41015625 21.16015625 C-65.3912205 23.93391822 -74.07453266 25.98157254 -83.41015625 27.16015625 C-79.15150439 22.19172908 -74.28194254 19.89731201 -68.41015625 17.16015625 C-67.0954842 16.49778317 -65.78281578 15.83141082 -64.47265625 15.16015625 C-63.12047397 14.48947384 -61.76615482 13.82308889 -60.41015625 13.16015625 C-59.5903125 12.75796875 -58.77046875 12.35578125 -57.92578125 11.94140625 C-39.31584761 3.12051285 -20.26772293 0.95186328 0 0 Z " fill="#F98880" transform="translate(544.41015625,298.83984375)"/>
<path d="M0 0 C6.08925346 -0.38503476 11.82467871 0.08454354 17.81323242 1.12451172 C31.24243271 3.42051718 44.22110758 2.85093272 57.78173828 2.14648438 C63.85506466 1.87004713 69.92227513 1.90552759 76 2 C76 2.33 76 2.66 76 3 C55.11106019 7.17282032 18.86915493 12.57943662 0 0 Z " fill="#DD3746" transform="translate(491,419)"/>
<path d="M0 0 C3.98964796 1.291564 5.8520749 2.54132915 8.125 6.0625 C8.84042969 7.13177734 8.84042969 7.13177734 9.5703125 8.22265625 C13.75691918 16.35565447 14.40110095 23.47624413 14.1875 32.5625 C14.17396484 33.66658203 14.16042969 34.77066406 14.14648438 35.90820312 C14.11144815 38.60599272 14.06232591 41.30272636 14 44 C16.475 41.525 16.475 41.525 19 39 C19.66 39.33 20.32 39.66 21 40 C19.77801556 41.58888299 18.54705525 43.17086464 17.3125 44.75 C16.62800781 45.63171875 15.94351563 46.5134375 15.23828125 47.421875 C13.01538057 49.98228416 10.70749594 51.97056346 8 54 C8.32484375 52.68902344 8.32484375 52.68902344 8.65625 51.3515625 C11.77366525 37.58297849 13.8599725 21.9884782 7 9 C5.25472674 6.63435124 3.45293484 4.51841918 1.390625 2.42578125 C0 1 0 1 0 0 Z " fill="#AF3317" transform="translate(640,509)"/>
<path d="M0 0 C4.75509747 7.1326462 2.85516732 20.26170333 1.62939453 28.48681641 C-1.72584173 44.58566595 -10.33837083 58.93890871 -20 72 C-20.66 71.34 -21.32 70.68 -22 70 C-20.86396021 66.59188064 -19.51260878 65.50053032 -17 63 C-9.64307958 52.15154554 -2.39375487 40.22233235 -1 27 C-0.82082031 25.77152344 -0.64164063 24.54304688 -0.45703125 23.27734375 C0.13473086 18.51563131 0.11034236 13.7915968 0.0625 9 C0.05798828 8.12988281 0.05347656 7.25976562 0.04882812 6.36328125 C0.0371736 4.24215707 0.01924357 2.1210689 0 0 Z " fill="#A72B13" transform="translate(682,476)"/>
<path d="M0 0 C0 0.33 0 0.66 0 1 C-15.51 1 -31.02 1 -47 1 C-46.67 0.34 -46.34 -0.32 -46 -1 C-30.7567542 -3.41956283 -15.19829693 -2.01206768 0 0 Z " fill="#D92738" transform="translate(639,415)"/>
<path d="M0 0 C1.65 1.65 3.3 3.3 5 5 C10.32978561 10.08129078 15.3859082 14.6929541 22 18 C21.67 18.66 21.34 19.32 21 20 C16.89160936 18.54997977 13.49655387 16.6020866 10 14 C10 13.34 10 12.68 10 12 C6.08936776 10.52952664 6.08936776 10.52952664 2 10 C2 12.97 2 15.94 2 19 C1.67 19 1.34 19 1 19 C0.67 12.73 0.34 6.46 0 0 Z " fill="#AA290C" transform="translate(438,409)"/>
<path d="M0 0 C0 0.33 0 0.66 0 1 C-13.94136416 5.11903941 -26.44516027 7.18397972 -41 7 C-41 6.67 -41 6.34 -41 6 C-36.44846861 5.13625044 -31.89526993 4.28212546 -27.34033203 3.43652344 C-25.79394989 3.14808913 -24.24803829 2.85711928 -22.70263672 2.56347656 C-20.4696422 2.13965449 -18.2350636 1.7252539 -16 1.3125 C-15.31945557 1.18125732 -14.63891113 1.05001465 -13.93774414 0.91479492 C-9.2016674 0.05290179 -4.78954905 -0.11225506 0 0 Z " fill="#B8492E" transform="translate(599,438)"/>
<path d="M0 0 C1.01835938 0.23460937 2.03671875 0.46921875 3.0859375 0.7109375 C5.625 1.625 5.625 1.625 7.625 4.625 C6.7690625 4.34785156 5.913125 4.07070313 5.03125 3.78515625 C-10.07508569 -0.61220145 -25.76990861 -0.20933782 -41.375 -0.375 C-41.375 -0.705 -41.375 -1.035 -41.375 -1.375 C-37.0420938 -1.57338161 -32.70867446 -1.75674427 -28.375 -1.9375 C-27.15425781 -1.99357422 -25.93351563 -2.04964844 -24.67578125 -2.10742188 C-16.04747742 -2.45721798 -8.42462705 -2.01411392 0 0 Z " fill="#BB5033" transform="translate(617.375,495.375)"/>
<path d="M0 0 C1.85082382 0.07919289 3.69872176 0.22749127 5.54296875 0.40234375 C13.46159549 1.07675311 21.37232005 1.33494776 29.3125 1.5625 C30.74675315 1.60584415 32.18099804 1.64946251 33.61523438 1.69335938 C37.07673386 1.79872057 40.53832884 1.90041812 44 2 C44 2.33 44 2.66 44 3 C37.91277254 3.04934154 31.8256608 3.08569167 25.73828125 3.10986328 C23.66632053 3.11993712 21.59437407 3.13359666 19.52246094 3.15087891 C16.54879236 3.17506664 13.5753113 3.18646908 10.6015625 3.1953125 C9.20618759 3.21079636 9.20618759 3.21079636 7.78262329 3.22659302 C6.92188202 3.22674408 6.06114075 3.22689514 5.17431641 3.22705078 C4.41486725 3.231492 3.65541809 3.23593323 2.87295532 3.24050903 C1 3 1 3 -1 1 C-0.67 0.67 -0.34 0.34 0 0 Z " fill="#B34124" transform="translate(509,443)"/>
<path d="M0 0 C1.86562642 1.57297914 2.90238443 2.45510217 3.34057617 4.90112305 C3.32486572 5.59761963 3.30915527 6.29411621 3.29296875 7.01171875 C3.28330078 7.76904297 3.27363281 8.52636719 3.26367188 9.30664062 C3.23853516 10.09232422 3.21339844 10.87800781 3.1875 11.6875 C3.17396484 12.48478516 3.16042969 13.28207031 3.14648438 14.10351562 C3.11117089 16.06929967 3.05736447 18.03473582 3 20 C-1.8984375 16.28125 -1.8984375 16.28125 -2.8125 13.75 C-2.9053125 12.88375 -2.9053125 12.88375 -3 12 C-1.68 12 -0.36 12 1 12 C0.67 11.34 0.34 10.68 0 10 C-0.06996014 8.29297265 -0.08440154 6.58331997 -0.0625 4.875 C-0.05347656 3.96492188 -0.04445313 3.05484375 -0.03515625 2.1171875 C-0.02355469 1.41851562 -0.01195312 0.71984375 0 0 Z " fill="#DB5A67" transform="translate(692,432)"/>
<path d="M0 0 C0.33 0 0.66 0 1 0 C1.33 1.65 1.66 3.3 2 5 C3.98 3.35 5.96 1.7 8 0 C8.66 0.33 9.32 0.66 10 1 C8.77801556 2.58888299 7.54705525 4.17086464 6.3125 5.75 C5.28576172 7.07257812 5.28576172 7.07257812 4.23828125 8.421875 C2 11 2 11 -3 15 C-2.01 10.05 -1.02 5.1 0 0 Z " fill="#B04126" transform="translate(651,548)"/>
<path d="M0 0 C0 0.33 0 0.66 0 1 C-3.29086844 1.34153092 -6.58279077 1.67166646 -9.875 2 C-10.7928125 2.09539062 -11.710625 2.19078125 -12.65625 2.2890625 C-18.79309053 2.89410312 -24.83466375 3.12065893 -31 3 C-31 2.34 -31 1.68 -31 1 C-28.16724047 0.66103732 -25.33395339 0.32870306 -22.5 0 C-21.31277344 -0.14308594 -21.31277344 -0.14308594 -20.1015625 -0.2890625 C-13.34419835 -1.06449773 -6.67632458 -1.66908114 0 0 Z " fill="#DD1F34" transform="translate(584,381)"/>
<path d="M0 0 C7.48830133 -0.65067714 11.46065193 3.46163673 17 8 C20.70647778 11.38417537 23.83787283 15.1151009 27 19 C26.34 19.66 25.68 20.32 25 21 C24.70609375 20.52691406 24.4121875 20.05382812 24.109375 19.56640625 C18.3534415 11.08136635 9.73736145 4.31955504 0 1 C0 0.67 0 0.34 0 0 Z " fill="#AB2F18" transform="translate(652,445)"/>
<path d="M0 0 C1.258125 -0.020625 2.51625 -0.04125 3.8125 -0.0625 C4.52019531 -0.07410156 5.22789062 -0.08570313 5.95703125 -0.09765625 C8 0 8 0 11 1 C11 1.66 11 2.32 11 3 C11.69867188 3.18175781 12.39734375 3.36351562 13.1171875 3.55078125 C14.02726562 3.80214844 14.93734375 4.05351562 15.875 4.3125 C16.77992188 4.55613281 17.68484375 4.79976563 18.6171875 5.05078125 C21 6 21 6 23 9 C17.62259304 8.43432472 13.11266608 7.11769442 8.125 5.0625 C7.44953125 4.79759766 6.7740625 4.53269531 6.078125 4.25976562 C1.12853505 2.25707009 1.12853505 2.25707009 0 0 Z " fill="#E03C48" transform="translate(468,410)"/>
<path d="M0 0 C1.52519276 0.08937803 3.04681929 0.24537146 4.5625 0.4375 C5.38878906 0.53933594 6.21507812 0.64117187 7.06640625 0.74609375 C7.70449219 0.82988281 8.34257812 0.91367187 9 1 C4.78836459 3.80775694 0.38817444 4.53907347 -4.5 5.6875 C-5.46292969 5.92533203 -6.42585938 6.16316406 -7.41796875 6.40820312 C-8.34222656 6.62798828 -9.26648438 6.84777344 -10.21875 7.07421875 C-11.06373047 7.27619873 -11.90871094 7.47817871 -12.77929688 7.6862793 C-15 8 -15 8 -18 7 C-15.9375 4.9375 -15.9375 4.9375 -13 3 C-10.66117862 3.29235267 -8.32716 3.62599214 -6 4 C-3.62366207 2.86349056 -1.85558971 1.85558971 0 0 Z " fill="#F7B4AB" transform="translate(479,318)"/>
<path d="M0 0 C4.8125 6.30603448 4.8125 6.30603448 4.8125 9.375 C3.8225 9.045 2.8325 8.715 1.8125 8.375 C1.8125 7.715 1.8125 7.055 1.8125 6.375 C1.131875 6.1275 0.45125 5.88 -0.25 5.625 C-3.75615083 4.13302092 -6.90370368 2.30664489 -10.1875 0.375 C-6.50590807 -1.46579596 -3.47114672 -2.57856614 0 0 Z " fill="#F19A93" transform="translate(670.1875,368.625)"/>
<path d="M0 0 C0 2 0 2 -1.375 3.4375 C-1.91125 3.953125 -2.4475 4.46875 -3 5 C-3.99 6.485 -3.99 6.485 -5 8 C-7.1640625 8.51171875 -7.1640625 8.51171875 -9.625 8.6875 C-10.44226563 8.75324219 -11.25953125 8.81898438 -12.1015625 8.88671875 C-12.72804688 8.92410156 -13.35453125 8.96148437 -14 9 C-12.56307522 5.52564457 -12.19474841 5.09206289 -8.5625 3.375 C-7.386875 2.92125 -6.21125 2.4675 -5 2 C-2 0 -2 0 0 0 Z " fill="#F08D87" transform="translate(481,314)"/>
<path d="M0 0 C3.72498309 1.24166103 4.25929938 2.51422259 6.375 5.75 C8.38933959 8.74798737 10.28428943 11.48082355 12.9375 13.9375 C13.618125 14.618125 14.29875 15.29875 15 16 C15 16.99 15 17.98 15 19 C8.77956202 14.20507905 4.18636271 8.65468566 0 2 C0 1.34 0 0.68 0 0 Z " fill="#AF331A" transform="translate(447,453)"/>
<path d="M0 0 C3.84938529 1.57556235 6.24588522 4.04353587 9.125 7 C9.99382812 7.886875 10.86265625 8.77375 11.7578125 9.6875 C12.49773437 10.450625 13.23765625 11.21375 14 12 C14.66 12.66 15.32 13.32 16 14 C16 14.66 16 15.32 16 16 C11.99651254 14.39289933 9.2847985 11.58204033 6.3125 8.5625 C5.81427734 8.07201172 5.31605469 7.58152344 4.80273438 7.07617188 C2.47235151 4.73314107 1.05938764 3.17816293 0 0 Z " fill="#DB2534" transform="translate(442,388)"/>
<path d="M0 0 C0 0.33 0 0.66 0 1 C-3.5596585 1.70279403 -7.12304026 2.38451425 -10.6875 3.0625 C-11.69490234 3.26166016 -12.70230469 3.46082031 -13.74023438 3.66601562 C-14.71669922 3.84970703 -15.69316406 4.03339844 -16.69921875 4.22265625 C-18.04246216 4.48187866 -18.04246216 4.48187866 -19.4128418 4.74633789 C-22.17485359 5.0171438 -24.32182431 4.67745815 -27 4 C-18.99143094 -0.5060034 -8.94627653 -0.31699405 0 0 Z " fill="#D72333" transform="translate(592,416)"/>
<path d="M0 0 C1.17046875 0.48210937 2.3409375 0.96421875 3.546875 1.4609375 C4.43890625 1.84507812 5.3309375 2.22921875 6.25 2.625 C6.25 3.615 6.25 4.605 6.25 5.625 C0.53062041 3.77006608 -5.10555275 1.69396109 -10.75 -0.375 C-6.76712649 -3.27342775 -4.28097812 -1.79801081 0 0 Z " fill="#DB2F40" transform="translate(660.75,421.375)"/>
<path d="M0 0 C2.31 0.33 4.62 0.66 7 1 C7 1.66 7 2.32 7 3 C7.9075 2.9175 8.815 2.835 9.75 2.75 C13.71037702 3.05464439 14.4184859 4.14911051 17 7 C11.01448228 5.49829538 5.38744379 4.05773837 0 1 C0 0.67 0 0.34 0 0 Z " fill="#B44A2C" transform="translate(478,483)"/>
<path d="M0 0 C5.65253308 1.37031105 8.5113541 5.67689413 12 10 C11.01 10.495 11.01 10.495 10 11 C10 10.34 10 9.68 10 9 C9.4225 8.9175 8.845 8.835 8.25 8.75 C5.3460664 7.78202213 3.96259396 6.31305716 2 4 C2 3.34 2 2.68 2 2 C1.34 2 0.68 2 0 2 C0 1.34 0 0.68 0 0 Z " fill="#DA283F" transform="translate(671,401)"/>
<path d="M0 0 C6.08233706 0.67581523 12.01314152 1.73638028 18 3 C18.33 3.99 18.66 4.98 19 6 C15.06806209 5.03728324 11.1603864 3.98347292 7.25 2.9375 C6.55261719 2.75123047 5.85523438 2.56496094 5.13671875 2.37304688 C3.42440354 1.91564761 1.7121915 1.45786215 0 1 C0 0.67 0 0.34 0 0 Z " fill="#F09991" transform="translate(633,358)"/>
<path d="M0 0 C3.21852831 0.63065757 5.50801069 1.78020695 8.25 3.5625 C8.95640625 4.01753906 9.6628125 4.47257812 10.390625 4.94140625 C11.18726563 5.46541016 11.18726563 5.46541016 12 6 C11.67 6.66 11.34 7.32 11 8 C6.89160936 6.54997977 3.49655387 4.6020866 0 2 C0 1.34 0 0.68 0 0 Z " fill="#B63617" transform="translate(448,421)"/>
<path d="M0 0 C1.32 0.66 2.64 1.32 4 2 C2.68 2.33 1.36 2.66 0 3 C0 9.6 0 16.2 0 23 C-0.33 23 -0.66 23 -1 23 C-1.02894547 19.54168414 -1.04678 16.08339928 -1.0625 12.625 C-1.07087891 11.64015625 -1.07925781 10.6553125 -1.08789062 9.640625 C-1.09111328 8.69960938 -1.09433594 7.75859375 -1.09765625 6.7890625 C-1.10289307 5.91975098 -1.10812988 5.05043945 -1.11352539 4.15478516 C-1 2 -1 2 0 0 Z " fill="#D93E50" transform="translate(435,348)"/>
<path d="M0 0 C3.58457283 -0.42171445 5.02895505 0.01614801 8.25 1.8125 C11 4 11 4 12 7 C1.49090909 2.98181818 1.49090909 2.98181818 0 0 Z " fill="#BA533A" transform="translate(626,500)"/>
<path d="M0 0 C0.33 0.99 0.66 1.98 1 3 C1.66 3 2.32 3 3 3 C3 3.99 3 4.98 3 6 C3.66 6 4.32 6 5 6 C5.4640625 7.175625 5.4640625 7.175625 5.9375 8.375 C6.92875038 10.92330128 6.92875038 10.92330128 8 13 C3.77825859 11.49223521 2.11282476 8.84835938 0 5 C-0.25 2.125 -0.25 2.125 0 0 Z " fill="#F2AFA8" transform="translate(486,337)"/>
<path d="M0 0 C5.13503344 0.64187918 9.9943454 1.68272247 15 3 C15 3.33 15 3.66 15 4 C12.87422093 3.9131724 10.74930419 3.8050049 8.625 3.6875 C7.44164062 3.62949219 6.25828125 3.57148438 5.0390625 3.51171875 C3.53472656 3.25841797 3.53472656 3.25841797 2 3 C1.34 2.01 0.68 1.02 0 0 Z " fill="#A82A0C" transform="translate(494,488)"/>
<path d="M0 0 C5.73491451 -0.88229454 8.76938812 1.49896975 13.2421875 4.6875 C13.82226562 5.120625 14.40234375 5.55375 15 6 C12.50403012 6.92133116 11.43325548 7.1970855 8.96484375 6.07421875 C8.29582031 5.61660156 7.62679687 5.15898437 6.9375 4.6875 C6.26589844 4.23761719 5.59429688 3.78773438 4.90234375 3.32421875 C4.27457031 2.88722656 3.64679687 2.45023437 3 2 C2.01 1.34 1.02 0.68 0 0 Z " fill="#AF381F" transform="translate(652,445)"/>
<path d="M0 0 C4.82596069 3.15422267 9.57557408 6.28919117 14 10 C9.83492783 9.45994624 7.45554561 8.16934899 4.1875 5.5625 C3.39730469 4.94503906 2.60710937 4.32757813 1.79296875 3.69140625 C1.20128906 3.13324219 0.60960937 2.57507813 0 2 C0 1.34 0 0.68 0 0 Z " fill="#D81C2F" transform="translate(442,354)"/>
<path d="M0 0 C2.79872437 2.52788007 4.45773019 4.20411134 5 8 C4.01 7.67 3.02 7.34 2 7 C2 6.34 2 5.68 2 5 C-0.475 4.01 -0.475 4.01 -3 3 C-2.01 2.67 -1.02 2.34 0 2 C0 1.34 0 0.68 0 0 Z " fill="#EAACA5" transform="translate(670,370)"/>
<path d="M0 0 C-1.31224548 3.93673644 -2.91910327 6.22719294 -6 9 C-6.33 8.34 -6.66 7.68 -7 7 C-5.84933177 3.5479953 -4.01648928 0 0 0 Z " fill="#B43218" transform="translate(667,539)"/>
<path d="M0 0 C3.99500618 1.3697164 6.80009492 3.25722422 10 6 C6 6 6 6 4 5 C4 4.34 4 3.68 4 3 C2.68 2.67 1.36 2.34 0 2 C0 1.34 0 0.68 0 0 Z " fill="#DA1A31" transform="translate(660,393)"/>
<path d="M0 0 C1.32 0.66 2.64 1.32 4 2 C1.23776722 4.76223278 -1.20706617 4.57856291 -5 5 C-3.35 3.35 -1.7 1.7 0 0 Z " fill="#E9A8A2" transform="translate(466,321)"/>
<path d="M0 0 C3 1 3 1 4.6875 4.0625 C5.120625 5.031875 5.55375 6.00125 6 7 C5.01 7.495 5.01 7.495 4 8 C0 2.25 0 2.25 0 0 Z " fill="#AC2C12" transform="translate(447,453)"/>
<path d="M0 0 C5.75 -0.125 5.75 -0.125 8 1 C8 1.66 8 2.32 8 3 C5.36 2.67 2.72 2.34 0 2 C0 1.34 0 0.68 0 0 Z " fill="#D60F23" transform="translate(632,384)"/>
</svg>
